<svg xmlns="http://www.w3.org/2000/svg" viewBox="0 0 256 256"><rect width="256" height="256" rx="32" fill="#0078d4"/><g transform="translate(36 28) scale(0.78)" fill="#ffffff"><path d="M128 24c-22 0-40 22-40 49 0 7 1 13 3 19-8 6-14 13-19 22-9 16-14 35-14 56 0 4 3 7 7 7h126c4 0 7-3 7-7 0-21-5-40-14-56-5-9-11-16-19-22 2-6 3-12 3-19 0-27-18-49-40-49zm-13 47c4 0 7 4 7 8s-3 8-7 8-7-4-7-8 3-8 7-8zm26 0c4 0 7 4 7 8s-3 8-7 8-7-4-7-8 3-8 7-8zm-31 19c2 6 7 10 18 10s16-4 18-10c-2 8-9 14-18 14s-16-6-18-14z"/></g><text x="128" y="226" font-family="-apple-system,system-ui,sans-serif" font-weight="700" font-size="36" fill="#ffffff" text-anchor="middle" letter-spacing="2">WSL</text></svg>
